# xmcd
#
# Track frame offsets: 
#        150
#        20598
#        35642
#        65780
#        84311
#        103711
#        137732
#        169350
#        206811
#        238635
#        271971
#        307284
#
# Disc length: 4280 seconds
#
# Revision: 6
# Processed by: cddbd v1.5.1PL2 Copyright (c) Steve Scherf et al.
# Submitted via: ExactAudioCopy v0.95b3
#
DISCID=b510b60c
DTITLE=Jimmy Witherspoon - California Blues Disc 4
DYEAR=1900
DGENRE=Blues
TTITLE0=Groove's Groove
TTITLE1=California Blues
TTITLE2=Wonderful World
TTITLE3=Misty
TTITLE4=Walking On A Tightrope
TTITLE5=Slow Blues In G
TTITLE6=Song For My Father
TTITLE7=My Friend
TTITLE8=Lonesome Road Blues
TTITLE9=On Say A Joy
TTITLE10=Danger Zone Is Everywhere
TTITLE11=The Time Has Come
EXTD=
EXTT0=
EXTT1=
EXTT2=
EXTT3=
EXTT4=
EXTT5=
EXTT6=
EXTT7=
EXTT8=
EXTT9=
EXTT10=
EXTT11=
PLAYORDER=
